<?xml version="1.0" standalone="no"?>
<!DOCTYPE svg PUBLIC "-//W3C//DTD SVG 20010904//EN"
 "http://www.w3.org/TR/2001/REC-SVG-20010904/DTD/svg10.dtd">
<svg version="1.0" xmlns="http://www.w3.org/2000/svg"
 width="112.000000pt" height="112.000000pt" viewBox="0 0 112.000000 112.000000"
 preserveAspectRatio="xMidYMid meet">

<g transform="translate(0.000000,112.000000) scale(0.100000,-0.100000)"
fill="#000000" stroke="none">
<path d="M470 1079 c-246 -26 -440 -247 -440 -499 0 -286 222 -510 504 -510
97 0 163 16 244 60 262 140 347 481 181 729 -108 162 -285 242 -489 220z m-72
-498 c2 -188 -1 -257 -10 -268 -10 -13 -14 -13 -25 2 -9 13 -12 80 -13 255 0
131 3 246 6 255 4 9 14 15 23 13 14 -3 16 -32 19 -257z m-80 -5 c2 -102 -1
-141 -10 -147 -7 -4 -16 -5 -20 -3 -4 3 -8 70 -8 150 0 133 1 145 18 142 15
-3 17 -19 20 -142z m150 -3 c-3 -124 -5 -148 -18 -148 -13 0 -15 24 -18 148
-2 143 -2 147 18 147 20 0 20 -4 18 -147z m150 8 c3 -135 -4 -166 -34 -154
-11 4 -14 33 -14 142 0 76 3 141 7 145 4 4 14 5 23 4 12 -3 15 -26 18 -137z
m145 125 c10 -25 4 -260 -6 -274 -7 -9 -13 -9 -23 -1 -11 9 -14 44 -14 144 0
72 3 135 7 138 11 12 31 8 36 -7z m-220 -130 c1 -46 -2 -71 -11 -79 -21 -17
-32 10 -32 79 0 58 15 93 33 75 4 -4 9 -38 10 -75z m142 -2 c0 -64 -3 -79 -15
-79 -12 0 -16 16 -18 69 -3 76 2 100 21 93 8 -2 12 -28 12 -83z m150 0 c0 -64
-3 -79 -15 -79 -12 0 -16 16 -18 69 -3 76 2 100 21 93 8 -2 12 -28 12 -83z
m-587 -3 c3 -46 1 -52 -15 -49 -13 2 -19 14 -21 42 -4 46 4 69 21 64 7 -3 13
-26 15 -57z m657 3 c0 -37 -4 -49 -15 -49 -16 0 -27 63 -16 92 12 31 31 6 31
-43z"/>
</g>
</svg>
